<?xml version="1.0" encoding="utf-8"?>
<!-- Generator: Adobe Illustrator 21.0.0, SVG Export Plug-In . SVG Version: 6.00 Build 0)  -->
<svg version="1.1" id="Layer_1" xmlns="http://www.w3.org/2000/svg" xmlns:xlink="http://www.w3.org/1999/xlink" x="0px" y="0px"
	 viewBox="0 0 20 20" style="enable-background:new 0 0 20 20;" xml:space="preserve">
<path d="M18.4,0.2H1.6c-0.8,0-1.5,0.7-1.5,1.5v16.8c0,0.8,0.7,1.5,1.5,1.5h16.8c0.8,0,1.5-0.7,1.5-1.5V1.6
	C19.8,0.8,19.2,0.2,18.4,0.2z M6,16.9h-3V7.5h3V16.9z M4.5,6.2c-0.9,0-1.7-0.7-1.7-1.7c0-1,0.8-1.7,1.7-1.7c0.9,0,1.7,0.7,1.7,1.7
	C6.3,5.5,5.5,6.2,4.5,6.2z M16.9,16.9h-3v-5.1c0-1.5-0.6-2-1.5-2c-0.9,0-1.7,0.7-1.7,2v5.1h-3V7.5h2.8v1.3h0C11,8.3,12,7.3,13.5,7.3
	c1.7,0,3.4,1,3.4,3.9V16.9z"/>
</svg>
