<?xml version="1.0" encoding="utf-8"?>
<!-- Generator: Adobe Illustrator 21.0.0, SVG Export Plug-In . SVG Version: 6.00 Build 0)  -->
<svg version="1.1" id="Layer_1" xmlns="http://www.w3.org/2000/svg" xmlns:xlink="http://www.w3.org/1999/xlink" x="0px" y="0px"
	 viewBox="0 0 380 1086" style="enable-background:new 0 0 380 1086;" xml:space="preserve">
<style type="text/css">
	.st0{fill:#232121;}
	.st1{fill:#AD8B19;}
	.st2{fill:none;stroke:#AD8B19;stroke-width:0.5;stroke-linecap:round;stroke-linejoin:round;stroke-miterlimit:10;}
	.st3{fill:none;stroke:#AD8B19;stroke-width:0.4969;stroke-linecap:round;stroke-linejoin:round;stroke-miterlimit:10;}
	.st4{fill:none;stroke:#AD8B19;stroke-width:2;stroke-linecap:round;stroke-linejoin:round;stroke-miterlimit:10;}
	.st5{fill:none;stroke:#000000;stroke-width:0.5;stroke-miterlimit:10;}
</style>
<g>
	<path class="st0" d="M355.3,966.1c2.2-9.4,2.7-18.8,1.1-27.3c-2.4-12.7-5.2-25.3-8.1-37.6c-9-35.9-17.6-72.2-25.9-108.7
		L355.3,966.1z"/>
	<path class="st0" d="M242.6,374.4c-3-19.5-5.9-38.9-8.7-58.4c-2.8-19-5.6-38.6-8.3-58.2c-2.4-17.7-4.9-35.4-7.1-52.6
		c-3.2-23.2-7.1-46.5-11.4-69.5c-1.2-6.3-2.6-12.6-4.2-18.9C198.4,99.4,192,82.6,184,66.7L242.6,374.4z"/>
	<path class="st0" d="M9,151c0.3,3.7,0.6,7.5,1,11.2c0.8,6.1,1.7,12.2,2.8,18.3c1,0.3,1.9,1.1,2.1,2.2c1.1,5.6,2.2,11.3,3.3,16.9
		L9,151z"/>
	<path class="st0" d="M27,239.7c1.3,5.8,2.7,11.5,4.1,17.2c4.7,18.4,9.4,36.8,14,55.2c5.1,20.5,10.1,41,15,61
		c5.3,21.9,10.5,43.9,15.7,65.9L10.5,96.7c-2,15.1-2.7,30.3-2,45.5L27,239.7z"/>
	<path class="st0" d="M347.4,986.9c3.1-5.8,5.6-12,7.3-18.2l-39.1-205.2c-26.2-117.1-48.9-236.4-68-356.7L182.1,63
		c-4.7-8.9-9.9-17.4-15.6-25.6L347.4,986.9z"/>
	<path class="st0" d="M297,1041.1c0.1-0.1,0.2-0.2,0.3-0.3L100.1,6.2h-0.8c-3.3-0.1-6.6,0.1-9.9,0.5L288,1048.3
		C291,1046.1,294,1043.7,297,1041.1z"/>
	<path class="st0" d="M82.6,469.1c28.5,126.1,53,254.8,73.3,384.9l42,220.6c0.3,0.2,0.5,0.4,0.7,0.5c3.3,2,6.9,3.1,10.8,3.6
		L16.6,66.2c-2.4,9-4.2,18-5.6,27.2L82.6,469.1z"/>
	<path class="st0" d="M160.7,885c6.2,41,12,82.2,17.3,123.4c1.9,14.2,4.2,28.2,6.8,41.8c0.2,1.1-0.3,2.1-1.1,2.7
		c2.2,9,6.7,16.2,12.9,20.7L160.7,885z"/>
	<path class="st0" d="M277.4,1055.2c3.2-1.8,6.4-4,9.6-6.2L88.3,6.8C84.8,7.3,81.4,7.9,78,9L277.4,1055.2z"/>
	<path class="st0" d="M225.1,1076.9c13.5-4.4,27.1-9.8,40.4-15.9L65.8,13.4l-10,4l199.6,1047.5c0,0.3-0.1,0.6-0.4,0.7
		c-0.3,0.1-0.6-0.1-0.7-0.4L54.8,17.7l-10,4l199.5,1047c0,0.3-0.1,0.6-0.4,0.7c-0.3,0-0.6-0.1-0.7-0.4L43.8,22.1L41.5,23
		c-2.7,1.1-5.2,2.5-7.4,4.4l199.2,1045.3c0,0.3-0.1,0.6-0.4,0.7c-0.3,0-0.6-0.1-0.7-0.4L33,28.2c-3.5,3.1-6.2,6.9-8,11.4
		c-0.1,0.4-0.3,0.8-0.4,1.1l197.4,1035.8c0,0.3-0.1,0.6-0.4,0.7c-0.3,0-0.6-0.1-0.7-0.4L24,42.8c-2.6,6.9-4.8,13.9-6.7,21
		l193.4,1014.9C215.2,1079.2,220.1,1078.6,225.1,1076.9z"/>
	<path class="st0" d="M270.5,1058.8c2-0.9,3.9-2,5.8-3L76.9,9.3c-1.7,0.5-3.4,1.1-5.2,1.7l-4.9,1.9l199.6,1047.7
		C267.9,1060,269.2,1059.4,270.5,1058.8z"/>
	<path class="st0" d="M318.4,1021.2c3-3,6.1-6,9-9L136,7.6c-1.8-0.4-3.6-0.7-5.4-0.7l-5.5-0.1L318.4,1021.2z"/>
	<path class="st0" d="M328.3,1011.2c2.5-2.5,5-5.1,7.4-7.7c0.5-0.6,1-1.2,1.5-1.7L149.3,15.5C146,12,141.7,9.4,137.2,8L328.3,1011.2
		z"/>
	<path class="st0" d="M317.4,1022.1L123.9,6.7l-10.8-0.3l195.2,1024.3C311.4,1027.9,314.4,1025.1,317.4,1022.1z"/>
	<path class="st0" d="M307.4,1031.7L112,6.5l-10.8-0.3l197,1033.8C301.3,1037.3,304.3,1034.5,307.4,1031.7z"/>
	<path class="st0" d="M338.2,1000.7c3.2-3.7,6-7.8,8.4-12.2L165,35.2c-4.5-6.3-9.2-12.3-14.2-18.1L338.2,1000.7z"/>
	<path class="st1" d="M155.9,854L82.6,469c-2.3-10-4.5-20-6.8-29.9l85,445.8C159.2,874.7,157.6,864.3,155.9,854z"/>
	<path class="st1" d="M265.5,1061.1c0,0.3,0.4,0.5,0.7,0.4c0.3,0,0.5-0.4,0.4-0.7l0-0.3C266.2,1060.8,265.9,1060.9,265.5,1061.1
		L265.5,1061.1z"/>
	<path class="st1" d="M276.4,1055.8l0.3,1.5c0,0.3,0.4,0.5,0.7,0.4c0.3,0,0.5-0.4,0.4-0.7l-0.4-1.8
		C277,1055.4,276.7,1055.6,276.4,1055.8z"/>
	<path class="st1" d="M247.6,406.8l68,356.7c2.2,9.7,4.5,19.3,6.7,29l-79.7-418.2C244.2,385.2,245.9,396,247.6,406.8z"/>
	<path class="st1" d="M9,151l9.3,48.6c2.7,13.4,5.7,26.8,8.8,40.2L8.4,142.3C8.6,145.2,8.7,148.1,9,151z"/>
	<path class="st1" d="M196.7,1073.6c0.4,0.3,0.8,0.6,1.3,0.9L156,854c1.6,10.3,3.2,20.7,4.8,31L196.7,1073.6z"/>
	<path class="st1" d="M75.8,439.2c2.3,9.9,4.6,19.9,6.8,29.9L11,93.5c-0.2,1.1-0.4,2.2-0.5,3.3L75.8,439.2z"/>
	<path class="st1" d="M16.6,66.2l192.9,1012.4c0.4,0,0.8,0.1,1.2,0.1L17.2,63.8C17,64.6,16.8,65.4,16.6,66.2z"/>
	<path class="st1" d="M221,1076.7c0,0.3,0.4,0.5,0.7,0.4c0.3,0,0.5-0.4,0.4-0.7L24.7,40.7c-0.3,0.7-0.5,1.4-0.8,2.1L221,1076.7z"/>
	<path class="st1" d="M232.1,1072.8c0,0.3,0.4,0.5,0.7,0.4c0.3,0,0.5-0.4,0.4-0.7L34,27.4c-0.4,0.3-0.7,0.6-1,0.8L232.1,1072.8z"/>
	<path class="st1" d="M243.9,1069.4c0.3,0,0.5-0.4,0.4-0.7L44.8,21.7l-1.1,0.4l199.5,1046.8C243.3,1069.2,243.6,1069.5,243.9,1069.4
		z"/>
	<path class="st1" d="M255,1065.5c0.3,0,0.5-0.4,0.4-0.7L55.9,17.3l-1.1,0.4L254.4,1065C254.4,1065.4,254.7,1065.5,255,1065.5z"/>
	<path class="st1" d="M265.5,1061.1c0.4-0.2,0.7-0.3,1-0.5L66.9,13l-1.1,0.4L265.5,1061.1z"/>
	<path class="st1" d="M78,8.9c-0.4,0.1-0.7,0.3-1.1,0.4l199.4,1046.5c0.4-0.2,0.7-0.4,1-0.5L78,8.9z"/>
	<path class="st1" d="M88.3,6.8L286.9,1049c0.3-0.2,0.7-0.5,1-0.7L89.4,6.7C89.1,6.7,88.7,6.8,88.3,6.8z"/>
	<path class="st1" d="M100.1,6.2l197.2,1034.7c0.3-0.3,0.6-0.6,1-0.9L101.2,6.2L100.1,6.2z"/>
	<path class="st1" d="M307.4,1031.7c0.3-0.3,0.6-0.6,1-0.9L113.2,6.5l-1.2,0L307.4,1031.7z"/>
	<path class="st1" d="M318.4,1021.2L125.1,6.8l-1.2,0l193.5,1015.4C317.7,1021.8,318.1,1021.5,318.4,1021.2z"/>
	<path class="st1" d="M328.3,1011.2L137.2,8c-0.4-0.1-0.8-0.3-1.2-0.4l191.4,1004.5C327.7,1011.8,328,1011.5,328.3,1011.2z"/>
	<path class="st1" d="M150.8,17.1c-0.2-0.3-0.4-0.5-0.7-0.8c-0.2-0.3-0.5-0.5-0.8-0.8l187.9,986.2c0.3-0.4,0.6-0.7,0.9-1.1
		L150.8,17.1z"/>
	<path class="st1" d="M346.6,988.5c0.3-0.5,0.6-1,0.8-1.6l-181-949.6c-0.5-0.7-1-1.4-1.6-2.1L346.6,988.5z"/>
	<path class="st1" d="M355.3,966.1l-33.1-173.5c-2.2-9.7-4.5-19.3-6.7-29l39.1,205.2C354.9,967.8,355.1,966.9,355.3,966.1z"/>
	<path class="st1" d="M242.3,373.8L183.7,66.1c-0.6-1.2-1.2-2.5-1.8-3.7l65.5,343.9C245.6,395.5,243.9,384.6,242.3,373.8z"/>
	<path class="st2" d="M95.8,546.2L45.6,332.4c66.2,34.2,138.4,17.4,184.8-41.8l0.5-0.7l33.9,212.2l-2.6-1.2
		c-57.5-27.5-125.4-9.6-167.7,45L95.8,546.2z"/>
	<path class="st3" d="M165.7,939.6L133,731.3c58.2,20.4,123.6-4.5,162.5-58.9l0.4-0.6L338.2,859l-2.7-0.9
		c-57.6-18.8-124.7,11.6-171.1,81.4L165.7,939.6z"/>
	<path class="st4" d="M235,315.8c28.4,199.2,66.7,395.5,114.3,585.2"/>
	<path class="st4" d="M226.7,257.6c2.7,19.4,5.4,38.8,8.3,58.2"/>
	<path class="st4" d="M219.6,205c2.3,17.5,4.7,35,7.1,52.6"/>
	<path class="st4" d="M219.6,205c-3.2-23.3-7.1-46.5-11.5-69.5"/>
	<path class="st4" d="M208.1,135.4c-1.2-6.4-2.6-12.7-4.2-18.9"/>
	<path class="st4" d="M203.9,116.5c-9.6-37.5-27.7-72.1-53-101"/>
	<path class="st4" d="M150.9,15.6c-5.3-6-12.6-9.6-20.3-9.8"/>
	<path class="st4" d="M130.6,5.8L99.4,5"/>
	<path class="st4" d="M99.4,5c-9.5-0.2-19,1.4-27.9,5"/>
	<path class="st4" d="M71.4,10L41,22"/>
	<path class="st4" d="M41,22c-7.7,3.1-13.9,9.3-17,17.2"/>
	<path class="st4" d="M24.1,39.2C9.1,78,3.8,120.5,8.9,162.3"/>
	<path class="st4" d="M8.9,162.4c0.8,7,2,14,3.2,20.9"/>
	<path class="st4" d="M225.4,1078c15.4-5,30.6-11.1,45.6-18.2"/>
	<path class="st4" d="M271,1059.8c9.2-4.4,18.2-10.4,26.7-17.9"/>
	<path class="st4" d="M297.7,1041.9c13.5-11.9,26.4-24.5,38.9-37.7"/>
	<path class="st4" d="M336.5,1004.2c16.6-17.7,25-44.3,21-65.6"/>
	<path class="st4" d="M357.5,938.6c-2.4-12.7-5.2-25.3-8.2-37.6"/>
	<path class="st4" d="M182.1,1050.8c4.4,23.1,22.2,34.1,43.3,27.2"/>
	<path class="st4" d="M12.2,183.3c4.8,25,10.2,49.8,16.3,74.5"/>
	<path class="st4" d="M42.4,312.9c-4.6-18.4-9.2-36.8-14-55.2"/>
	<path class="st4" d="M57.4,373.9c-4.9-20.4-9.9-40.7-15-61"/>
	<path class="st4" d="M175.3,1008.8c-28.2-217.3-67.4-428.3-117.9-634.9"/>
	<path class="st4" d="M175.3,1008.8c1.9,14.2,4.2,28.2,6.9,42"/>
	<path class="st4" d="M12.2,183.3c4.8,25,10.2,49.8,16.3,74.5"/>
	<path class="st4" d="M42.4,312.9c-4.6-18.4-9.2-36.8-14-55.2"/>
	<path class="st4" d="M57.4,373.9c-4.9-20.4-9.9-40.7-15-61"/>
	<path class="st4" d="M175.3,1008.8c-28.2-217.3-67.4-428.3-117.9-634.9"/>
	<path class="st4" d="M175.3,1008.8c1.9,14.2,4.2,28.2,6.9,42"/>
	<path class="st5" d="M235,315.8c28.4,199.2,66.7,395.5,114.3,585.2"/>
	<path class="st5" d="M226.7,257.6c2.7,19.4,5.4,38.8,8.3,58.2"/>
	<path class="st5" d="M219.6,205c2.3,17.5,4.7,35,7.1,52.6"/>
	<path class="st5" d="M219.6,205c-3.2-23.3-7.1-46.5-11.5-69.5"/>
	<path class="st5" d="M208.1,135.4c-1.2-6.4-2.6-12.7-4.2-18.9"/>
	<path class="st5" d="M203.9,116.5c-9.6-37.5-27.7-72.1-53-101"/>
	<path class="st5" d="M150.9,15.6c-5.3-6-12.6-9.6-20.3-9.8"/>
	<path class="st5" d="M130.6,5.8L99.4,5"/>
	<path class="st5" d="M99.4,5c-9.5-0.2-19,1.4-27.9,5"/>
	<path class="st5" d="M71.4,10L41,22"/>
	<path class="st5" d="M41,22c-7.7,3.1-13.9,9.3-17,17.2"/>
	<path class="st5" d="M24.1,39.2C9.1,78,3.8,120.5,8.9,162.3"/>
	<path class="st5" d="M8.9,162.4c0.8,7,2,14,3.2,20.9"/>
	<path class="st5" d="M225.4,1078c15.4-5,30.6-11.1,45.6-18.2"/>
	<path class="st5" d="M271,1059.8c9.2-4.4,18.2-10.4,26.7-17.9"/>
	<path class="st5" d="M297.7,1041.9c13.5-11.9,26.4-24.5,38.9-37.7"/>
	<path class="st5" d="M336.5,1004.2c16.6-17.7,25-44.3,21-65.6"/>
	<path class="st5" d="M357.5,938.6c-2.4-12.7-5.2-25.3-8.2-37.6"/>
	<path class="st5" d="M182.1,1050.8c4.4,23.1,22.2,34.1,43.3,27.2"/>
	<path class="st5" d="M12.2,183.3c4.8,25,10.2,49.8,16.3,74.5"/>
	<path class="st5" d="M42.4,312.9c-4.6-18.4-9.2-36.8-14-55.2"/>
	<path class="st5" d="M57.4,373.9c-4.9-20.4-9.9-40.7-15-61"/>
	<path class="st5" d="M175.3,1008.8c-28.2-217.3-67.4-428.3-117.9-634.9"/>
	<path class="st5" d="M175.3,1008.8c1.9,14.2,4.2,28.2,6.9,42"/>
	<path class="st5" d="M12.2,183.3c4.8,25,10.2,49.8,16.3,74.5"/>
	<path class="st5" d="M42.4,312.9c-4.6-18.4-9.2-36.8-14-55.2"/>
	<path class="st5" d="M57.4,373.9c-4.9-20.4-9.9-40.7-15-61"/>
	<path class="st5" d="M175.3,1008.8c-28.2-217.3-67.4-428.3-117.9-634.9"/>
	<path class="st5" d="M175.3,1008.8c1.9,14.2,4.2,28.2,6.9,42"/>
	<path class="st0" d="M225.6,975.2l-41.9-226.5c56.6,27.6,114.5,5.1,146.5-51.5l0.4-0.7L371.9,896l-2.2-0.9
		c-48.2-20.8-106.8,9.8-143.7,80.5L225.6,975.2z"/>
	<path class="st1" d="M333,708.3l-13.7,5.5c-0.4,0.6-0.9,1.2-1.3,1.7l15.3-6.1L333,708.3z"/>
	<path class="st1" d="M211.3,758.2c-0.7-0.1-1.3-0.3-2-0.4l-22.3,9l0.2,1.1L211.3,758.2z"/>
	<path class="st1" d="M340.9,746.5l-0.2-1.1L194,804.2l0.2,1.1L340.9,746.5z"/>
	<path class="st1" d="M348.6,783.6l-0.2-1.1l-147.5,59.1l0.2,1.1L348.6,783.6z"/>
	<path class="st1" d="M356.3,820.8l-0.2-1.1l-148.3,59.4l0.2,1.1L356.3,820.8z"/>
	<path class="st1" d="M364,857.9l-0.2-1.1l-149,59.7l0.2,1.1L364,857.9z"/>
	<path class="st1" d="M244.2,946.1c0.4-0.6,0.8-1.2,1.3-1.7l-23.9,9.6l0.2,1.1L244.2,946.1z"/>
	<path class="st1" d="M371.7,895.1l-0.2-1.1l-2.3,0.9c0.2,0.1,0.4,0.1,0.5,0.2l1,0.4L371.7,895.1z"/>
	<path class="st1" d="M337.9,732.1l-1.8-8.9l-43,16.7c-15.5,11.4-32.9,18.3-51.3,20l-52.2,20.4l1.6,8.9L337.9,732.1z"/>
	<path class="st1" d="M345.6,769.2l-1.9-8.9l-147.3,57.4l1.6,8.9L345.6,769.2z"/>
	<path class="st1" d="M353.3,806.3l-1.8-8.9l-148.1,57.7l1.6,9L353.3,806.3z"/>
	<path class="st1" d="M361,843.4l-1.8-8.9l-148.9,58l1.6,8.9L361,843.4z"/>
	<path class="st1" d="M310.9,893.4c11.9-4,23.9-5.5,35.6-4.3l22.1-8.6l-1.8-8.9L310.9,893.4z"/>
	<path class="st1" d="M267.7,919.8c10.9-10,22.5-17.7,34.2-22.9l-84.7,33l1.6,8.9L267.7,919.8z"/>
	<path class="st1" d="M182.6,748.7c0-0.4,0.2-0.7,0.4-0.9c0.4-0.3,0.8-0.3,1.2-0.1c54.5,26.5,112.7,6,145-51.1l0.4-0.7
		c0.2-0.4,0.7-0.6,1.2-0.5c0.4,0.1,0.8,0.4,0.9,0.9L373,895.8c0.1,0.4,0,0.8-0.4,1.1c-0.3,0.3-0.8,0.3-1.2,0.2l-2.2-0.9
		c-49-21.2-106.3,11-142.3,80c-0.2,0.3-0.5,0.5-0.8,0.6c-0.3,0-0.7,0-0.9-0.3l-0.4-0.4c-0.2-0.2-0.3-0.4-0.3-0.6l-41.9-226.5
		C182.6,748.8,182.6,748.7,182.6,748.7z M330.1,699.6c-32.8,56.1-90.5,76.4-144.9,51l41,222c36.7-68.4,94.3-100,143.9-78.6l0.2,0.1
		L330.1,699.6z"/>
	<path class="st0" d="M151.5,578.1l-44.4-226.3c59.2,33.2,119.6,16.3,153.7-37.3l0.4-0.6l37.4,199.9l-2.2-1.1
		C248.2,488.8,190.2,512.7,151.5,578.1z"/>
	<path class="st1" d="M184.5,367.5c9.9-1.6,19.4-4.6,28.3-9L184.5,367.5z"/>
	<path class="st1" d="M234.8,506.8c-3.2,0.9-6.4,1.9-9.6,3.1L234.8,506.8z"/>
	<path class="st1" d="M266.4,341.7l-53.5,16.8c-9,4.4-18.5,7.4-28.3,9l-70,22l1.6,8.5L268,350.1L266.4,341.7z"/>
	<path class="st1" d="M272.8,375.8l-151.5,48.1l1.7,8.5l151.4-48.2L272.8,375.8z"/>
	<path class="st1" d="M279.2,410.1L128,458.5l1.7,8.5l151.1-48.4L279.2,410.1z"/>
	<path class="st1" d="M285.7,444.5l-150.8,48.6l1.6,8.6L287.2,453L285.7,444.5z"/>
	<path class="st1" d="M225.2,509.9c3.2-1.2,6.4-2.2,9.6-3.1l58.9-19.1l-1.6-8.6L141.7,528l1.7,8.6L225.2,509.9z"/>
	<path class="st1" d="M264.2,330l-20.9,6.6c-0.6,0.6-1.1,1.1-1.7,1.6l22.7-7.1L264.2,330z"/>
	<path class="st1" d="M112.4,378.8l37-11.6c-0.8-0.1-1.5-0.3-2.3-0.4l-34.9,11L112.4,378.8z"/>
	<path class="st1" d="M118.9,412.2l151.7-48l-0.2-1.1l-151.7,48L118.9,412.2z"/>
	<path class="st1" d="M125.5,445.8l151.3-48.3l-0.2-1.1l-151.3,48.2L125.5,445.8z"/>
	<path class="st1" d="M132.1,479.4l151-48.5l-0.2-1.1l-151,48.5L132.1,479.4z"/>
	<path class="st1" d="M138.8,513.2l150.6-48.7l-0.2-1.1l-150.6,48.7L138.8,513.2z"/>
	<path class="st1" d="M145.4,547.2l42-13.7c0.7-0.6,1.4-1.2,2.1-1.8l-44.3,14.4L145.4,547.2z"/>
	<path class="st1" d="M274.2,505.3l21.5-7l-0.2-1.1l-23.5,7.7C272.7,504.9,273.5,505.1,274.2,505.3z"/>
	<path class="st2" d="M151.5,578.1l-44.4-226.3c59.2,33.2,119.6,16.3,153.7-37.3l0.4-0.6l37.4,199.9l-2.2-1.1
		C248.2,488.8,190.2,512.7,151.5,578.1z"/>
</g>
</svg>
