<?xml version="1.0" encoding="utf-8"?>
<!-- Generator: Adobe Illustrator 21.0.0, SVG Export Plug-In . SVG Version: 6.00 Build 0)  -->
<svg version="1.1" id="Layer_1" xmlns="http://www.w3.org/2000/svg" xmlns:xlink="http://www.w3.org/1999/xlink" x="0px" y="0px"
	 viewBox="0 0 380 1086" style="enable-background:new 0 0 380 1086;" xml:space="preserve">
<style type="text/css">
	.st0{fill:#AD8B19;}
</style>
<path class="st0" d="M358.1,938.1C358.1,938,358.1,938,358.1,938.1c-2.5-13-5.3-25.6-8.2-37.6c0,0,0,0,0,0c0,0,0,0,0,0
	c-47.5-189.4-86-386-114.2-584.6c0,0,0,0,0,0c-2.9-19.7-5.7-39.3-8.3-58c0,0,0-0.1,0-0.1c-2.3-16.2-4.6-33.4-7.1-52.5c0,0,0,0,0,0
	c-3.2-23.2-7.1-46.6-11.5-69.5c0,0,0,0,0,0c-1.2-6.2-2.6-12.5-4.2-18.9c0,0,0,0,0,0c-9.5-37.4-27.9-72.3-53-101c0,0,0-0.1,0-0.1
	C146.3,9.6,138.7,6,131,5.8c0,0,0,0,0,0c0,0,0,0,0,0L99.8,5c0,0,0,0,0,0C90,4.8,80.6,6.5,71.7,10c0,0,0,0,0,0L41.3,22c0,0,0,0,0,0
	c-7.8,3.1-14.1,9.5-17.2,17.5c0,0,0,0,0,0c0,0,0,0,0,0C9,78.4,3.8,121.1,8.9,162.8c0,0,0,0,0,0c0.8,6.2,1.8,12.9,3,19.8
	c-0.4,0.3-0.6,0.8-0.5,1.3C16,208.1,21.5,233,27.7,258c0,0.1,0,0.2,0,0.3c4.1,15.9,8.4,32.9,14,55.1c0,0,0,0,0,0.1
	c4.9,19.5,9.9,40,14.9,60.8c0,0,0,0,0,0c50.2,205.4,89.8,418.7,117.8,634.1c0,0,0,0,0,0c0,0,0,0,0,0c1.8,13.5,4.1,27.7,6.9,42
	c0.1,0.5,0.5,0.9,0.9,1c2.4,11.1,8,19.8,16,24.5c4.6,2.7,9.8,4.1,15.4,4.1c3.9,0,8.1-0.7,12.3-2.1c0,0,0,0,0,0
	c15.4-5,30.7-11.2,45.6-18.2c9.3-4.4,18.3-10.4,26.7-17.9c0,0,0.1,0,0.1,0c13.3-11.7,26.3-24.4,38.8-37.7c0,0,0,0,0-0.1
	C353.8,986.2,362.2,959.7,358.1,938.1z M297.6,1041.1C297.6,1041.1,297.5,1041.1,297.6,1041.1c-8.5,7.5-17.4,13.4-26.6,17.8
	c-14.8,7-30.1,13.1-45.5,18.1c0,0,0,0,0,0c-9.9,3.2-19.2,2.6-26.8-1.9c-7.8-4.6-13.2-13-15.5-23.8c0.4-0.3,0.6-0.8,0.5-1.3
	c-2.7-14.3-5-28.4-6.8-41.9c0,0,0,0,0,0c-27.9-215.5-67.6-428.9-117.8-634.4c0,0,0,0,0,0c-5-20.9-10.1-41.4-14.9-61c0,0,0,0,0,0
	c-5.5-22.1-9.8-39-13.9-54.8c0-0.1,0-0.1,0-0.2c-6.2-25-11.7-50-16.3-74.3c-0.1-0.5-0.5-0.9-0.9-1c-1.3-6.9-2.3-13.5-3-19.7
	c0,0,0,0,0,0c0,0,0,0,0,0C4.8,121.1,10,78.6,25,39.9c0,0,0,0,0,0c3-7.7,9.1-13.9,16.7-16.9c0,0,0,0,0,0L71.9,11c0,0,0.1,0,0.1,0
	C80.8,7.5,90.2,5.8,99.8,6c0,0,0,0,0,0l31.2,0.8c0,0,0,0,0,0c0,0,0,0,0,0c0,0,0,0,0,0c7.4,0.2,14.7,3.6,19.9,9.5c0,0,0,0.1,0,0.1
	c25.1,28.6,43.3,63.4,52.8,100.7c0,0,0,0,0,0c1.6,6.4,3.1,12.7,4.2,18.9c0,0,0,0,0,0c4.4,22.9,8.2,46.3,11.5,69.4c0,0,0,0,0,0
	c2.5,19.1,4.8,36.2,7.1,52.4c0,0,0,0.1,0,0.1c2.6,18.8,5.4,38.4,8.3,58.1c0,0,0,0,0,0C263,514.6,301.4,711.3,349,900.7c0,0,0,0,0,0
	c0,0,0,0,0,0c2.9,11.9,5.7,24.6,8.2,37.6c0,0,0,0,0,0c4,21.3-4.3,47.5-20.8,65.1c0,0,0,0,0,0.1
	C323.8,1016.7,310.8,1029.4,297.6,1041.1z"/>
</svg>
